<svg width="62" height="50" viewBox="0 0 62 50" fill="none" xmlns="http://www.w3.org/2000/svg">
<mask id="mask0_1_304" style="mask-type:luminance" maskUnits="userSpaceOnUse" x="0" y="0" width="62" height="50">
<path d="M61.1881 0H0V50H61.1881V0Z" fill="white"/>
</mask>
<g mask="url(#mask0_1_304)">
<path d="M30.608 50H30.5863C30.4161 50 30.2405 49.9941 30.0702 49.9836C29.8888 49.9724 29.7081 49.956 29.5326 49.9337C29.357 49.9114 29.1756 49.8843 29 49.8568C28.9896 49.8525 28.9784 49.8507 28.9672 49.8515C28.8023 49.8186 28.6373 49.7804 28.4729 49.7417C28.2106 49.6828 27.9522 49.6077 27.6991 49.5169H27.6933C27.4356 49.4288 27.1884 49.3302 26.9413 49.2204C26.8591 49.1816 26.7769 49.1488 26.7 49.103C26.6231 49.0572 26.5351 49.0261 26.4581 48.9856L26.4529 48.9803C26.3707 48.9363 26.2938 48.8922 26.218 48.8482C26.1423 48.8042 26.059 48.7607 25.9832 48.7114C25.8458 48.6286 25.7085 48.5465 25.577 48.4584C25.2556 48.2373 24.9477 47.9973 24.6547 47.7398C24.5667 47.6629 24.4898 47.5913 24.4076 47.5091C24.353 47.4598 24.3037 47.4099 24.2485 47.3553C24.1499 47.2567 24.0506 47.1522 23.9549 47.0477C23.8593 46.9432 23.7688 46.834 23.6755 46.7242C23.5821 46.6145 23.4941 46.5047 23.4119 46.389C23.3297 46.2734 23.2417 46.1542 23.1595 46.0321L22.9617 45.7386L22.8959 45.6394C22.0595 44.2386 21.6175 42.6378 21.6167 41.0063C21.6139 39.2193 22.1495 37.4729 23.1536 35.9946L30.4161 25.2251L30.5975 24.9615L30.8552 24.577L35.2687 18.0284L44.3316 4.59604C44.3342 4.59004 44.3378 4.5845 44.3422 4.57962L44.7649 3.95381C45.4118 2.94757 46.2533 2.08072 47.2399 1.40414C48.2265 0.727544 49.3382 0.254848 50.51 0.0138028C51.6818 -0.227242 52.8899 -0.231769 54.0634 0.000455722C55.2369 0.23268 56.3522 0.696988 57.3439 1.36614C58.3355 2.03528 59.1833 2.89578 59.8379 3.89713C60.4924 4.89846 60.9404 6.02048 61.1552 7.19729C61.3707 8.3741 61.3484 9.58196 61.0901 10.7501C60.8318 11.9182 60.3427 13.0229 59.6518 13.9995L45.6214 34.7982C45.6161 34.8035 45.6161 34.8094 45.6102 34.8147L41.7462 40.5455L38.1176 45.9247C38.1012 45.947 38.09 45.9634 38.0789 45.9799C38.0694 46.0002 38.0565 46.0187 38.0407 46.0344V46.0403C37.931 46.1994 37.8159 46.3532 37.7002 46.5012C37.6871 46.5285 37.6686 46.5529 37.6456 46.5728C37.5687 46.6773 37.4806 46.7812 37.3932 46.8798C37.2558 47.0448 37.1073 47.2039 36.9541 47.3577L36.9429 47.3688C36.8255 47.4862 36.7122 47.5937 36.5906 47.7034C36.5413 47.7422 36.4921 47.7856 36.4428 47.8297C36.3547 47.9118 36.2614 47.9835 36.168 48.0551C36.1434 48.0803 36.1158 48.1023 36.0858 48.1208C35.9981 48.1933 35.9066 48.2611 35.8117 48.324C35.753 48.3727 35.6906 48.4167 35.625 48.4555C35.625 48.4607 35.6191 48.4607 35.6191 48.4607C35.3201 48.6606 35.0105 48.844 34.6916 49.0102C34.5489 49.0813 34.4009 49.1529 34.2577 49.2186C34.2524 49.2186 34.2525 49.2239 34.2472 49.2239C34.0822 49.2955 33.9231 49.3613 33.7588 49.4217C33.5944 49.4822 33.4183 49.5427 33.2427 49.5979C33.0672 49.653 32.897 49.6965 32.7267 49.7405C32.5565 49.7845 32.3915 49.8174 32.2271 49.8503C32.2071 49.8512 32.1874 49.8551 32.1684 49.8615C31.9982 49.889 31.8338 49.916 31.6636 49.9325C31.4933 49.9489 31.3066 49.9712 31.1252 49.9824C30.9538 49.9941 30.7842 50 30.608 50Z" fill="url(#paint0_linear_1_304)"/>
<g style="mix-blend-mode:multiply" opacity="0.1">
<path d="M30.608 50H30.5863C30.4161 50 30.2405 49.9941 30.0702 49.9835C29.8888 49.9724 29.7081 49.956 29.5326 49.9337C29.357 49.9114 29.1756 49.8843 29 49.8567C28.9896 49.8525 28.9784 49.8507 28.9672 49.8515C28.8023 49.8186 28.6373 49.7805 28.4729 49.7417C28.2106 49.6828 27.9522 49.6077 27.6991 49.5169H27.6933C27.4356 49.4288 27.1884 49.3302 26.9413 49.2204C26.8591 49.1817 26.7769 49.1487 26.7 49.1029C26.6231 49.0571 26.5351 49.0261 26.4581 48.9856L26.4529 48.9803C26.3707 48.9363 26.2938 48.8922 26.218 48.8482C26.1423 48.8042 26.059 48.7607 25.9832 48.7114C25.8458 48.6286 25.7085 48.5465 25.577 48.4584C25.2556 48.2373 24.9477 47.9973 24.6547 47.7398C24.5667 47.6629 24.4898 47.5913 24.4076 47.5091C24.353 47.4598 24.3037 47.4099 24.2485 47.3553C24.1499 47.2567 24.0506 47.1522 23.9549 47.0477C23.8593 46.9432 23.7688 46.834 23.6755 46.7242C23.5821 46.6144 23.4941 46.5047 23.4119 46.389C23.3297 46.2734 23.2417 46.1542 23.1595 46.0321L22.9617 45.7386L22.8959 45.6394C22.0595 44.2386 21.6175 42.6378 21.6167 41.0063C21.6139 39.2193 22.1495 37.4729 23.1536 35.9947L30.4161 25.2251L30.5975 24.9616L30.8552 24.577L35.2687 18.0284L35.4278 18.5884L41.7462 40.5443L38.1176 45.9235C38.1012 45.9458 38.09 45.9622 38.0789 45.9787C38.0694 45.9989 38.0565 46.0174 38.0407 46.0332V46.0392C37.931 46.1982 37.8159 46.3521 37.7002 46.5C37.6871 46.5273 37.6686 46.5517 37.6456 46.5716C37.5687 46.6761 37.4806 46.78 37.3932 46.8786C37.2558 47.0435 37.1073 47.2027 36.9541 47.3565L36.9429 47.3677C36.8255 47.4851 36.7122 47.5925 36.5906 47.7023C36.5413 47.741 36.4921 47.7845 36.4428 47.8285C36.3547 47.9107 36.2614 47.9823 36.168 48.0539C36.1434 48.0791 36.1158 48.1012 36.0858 48.1197C35.9981 48.1921 35.9066 48.2599 35.8117 48.3228C35.753 48.3715 35.6906 48.4155 35.625 48.4543C35.625 48.4596 35.6191 48.4596 35.6191 48.4596C35.3201 48.6593 35.0105 48.8428 34.6916 49.009C34.5489 49.08 34.4009 49.1517 34.2577 49.2175C34.2524 49.2175 34.2525 49.2227 34.2472 49.2227C34.0822 49.2944 33.9231 49.3601 33.7588 49.4206C33.5944 49.4811 33.4183 49.5415 33.2427 49.5966C33.0672 49.6518 32.897 49.6953 32.7267 49.7394C32.5565 49.7834 32.3915 49.8162 32.2271 49.8491C32.2071 49.8501 32.1874 49.8538 32.1684 49.8603C31.9982 49.8879 31.8338 49.9149 31.6636 49.9313C31.4933 49.9478 31.3066 49.97 31.1252 49.9812C30.9538 49.9941 30.7842 50 30.608 50Z" fill="black"/>
</g>
<path d="M30.6077 50H30.5861C30.4158 50 30.2403 49.9941 30.07 49.9835C29.8886 49.9724 29.7079 49.9559 29.5323 49.9336C29.3568 49.9113 29.1753 49.8843 28.9998 49.8567C28.9894 49.8525 28.9782 49.8507 28.967 49.8514C28.802 49.8186 28.6371 49.7804 28.4727 49.7417C27.9475 49.6142 27.4349 49.4397 26.9411 49.2204C26.7767 49.1487 26.617 49.0666 26.4579 48.9897L26.4526 48.9844C26.2935 48.9022 26.1344 48.8083 25.9829 48.7155C25.8456 48.6327 25.7082 48.5505 25.5767 48.4625C25.2554 48.2414 24.9474 48.0014 24.6544 47.7439C24.5118 47.6177 24.3797 47.4909 24.2482 47.3594C23.8452 46.9535 23.4814 46.5104 23.1616 46.0362L22.9637 45.7427L22.898 45.6434L20.9161 42.7123L20.9108 42.707C20.9108 42.7011 20.9056 42.7011 20.9056 42.6958C20.9056 42.6906 20.8997 42.6906 20.8997 42.6847H20.8944C20.8861 42.6743 20.8787 42.6633 20.8721 42.6518L13.9448 32.3813L13.1271 31.1684L1.53919 14.0036C0.530095 12.5097 -0.0054494 10.7465 0.0024045 8.94375C0.0102584 7.14096 0.561154 5.38245 1.58323 3.89743C1.62139 3.84284 1.65426 3.79881 1.68185 3.76593C2.47575 2.64606 3.5173 1.72444 4.7255 1.07279C5.93368 0.42114 7.27598 0.0570342 8.64786 0.00878906H9.5096C10.8884 0.0924504 12.2295 0.49245 13.4288 1.17779C14.6282 1.86313 15.6537 2.81541 16.4257 3.96084L23.1997 14.0065L23.4522 14.3799L26.9216 19.5178L27.4594 20.3191C27.4648 20.3314 27.4723 20.3425 27.4817 20.352L30.5996 24.9686L30.6265 25.0067L38.0428 35.9964C39.0326 37.4657 39.5663 39.1947 39.5768 40.9663C39.5872 42.7379 39.074 44.4731 38.1016 45.954C38.0792 45.9869 38.0575 46.0197 38.0428 46.0473C37.933 46.2064 37.818 46.3602 37.7024 46.5082C37.6037 46.6403 37.5051 46.7665 37.3953 46.8868C37.258 47.0518 37.1094 47.2109 36.9562 47.3647L36.945 47.3758C36.7859 47.5349 36.621 47.6887 36.4455 47.8367C36.3574 47.9189 36.2641 47.9905 36.1707 48.0621C36.1461 48.0874 36.1185 48.1094 36.0885 48.1279C36.0007 48.2004 35.9093 48.2681 35.8144 48.331C35.7526 48.3799 35.6884 48.4255 35.6218 48.4678C35.1867 48.7601 34.7277 49.0154 34.2498 49.2309C34.0849 49.3026 33.9258 49.3683 33.7614 49.4288C33.5971 49.4892 33.4209 49.5497 33.2454 49.6049C33.0699 49.6601 32.8997 49.7035 32.7294 49.7475C32.5592 49.7916 32.3942 49.8244 32.2298 49.8573C32.2098 49.8583 32.1901 49.8621 32.1711 49.8685C32.0009 49.8961 31.8365 49.9231 31.6662 49.9395C31.496 49.9559 31.3093 49.9783 31.1279 49.9894C30.9535 49.9941 30.7839 50 30.6077 50Z" fill="url(#paint1_linear_1_304)"/>
<g style="mix-blend-mode:multiply" opacity="0.1">
<path d="M13.9425 32.379L13.1247 31.1661L1.53687 14.0013C0.527776 12.5074 -0.00776872 10.7441 8.51622e-05 8.94138C0.00793909 7.13866 0.558816 5.38013 1.58089 3.89511C1.61905 3.84052 1.65194 3.79649 1.67953 3.76361C2.47342 2.64374 3.51498 1.72212 4.72318 1.07047C5.93136 0.418821 7.27366 0.0547148 8.64555 0.00646973H9.50729C10.8861 0.0901312 12.2272 0.490131 13.4265 1.17547C14.6259 1.86081 15.6513 2.81309 16.4234 3.95852L23.1974 14.0042L23.4498 14.3776L26.9193 19.5155L14.2172 32.1031L13.9425 32.379Z" fill="black"/>
</g>
<path d="M13.1247 31.1637L1.53687 13.9988C0.527776 12.505 -0.00776872 10.7417 8.51622e-05 8.93896C0.00793909 7.13623 0.558816 5.37768 1.58089 3.89267C1.61905 3.83807 1.65194 3.79405 1.67953 3.76117C2.47342 2.64129 3.51498 1.71968 4.72318 1.06803C5.93136 0.416379 7.27366 0.0522734 8.64555 0.00402832H32.2821L23.4498 14.374L15.2105 27.7729C15.2052 27.7788 15.2053 27.784 15.1994 27.7893L13.3554 30.7868L13.1247 31.1637Z" fill="url(#paint2_linear_1_304)"/>
<g style="mix-blend-mode:screen" opacity="0.6">
<path d="M36.9425 47.3706L37.3705 46.8052C37.517 46.625 37.6527 46.4363 37.7767 46.2399L38.1336 45.6411C38.2512 45.4423 38.354 45.2351 38.4412 45.0212C38.5447 44.8139 38.6326 44.5992 38.7043 44.3789L38.9132 43.7255C38.979 43.506 39.0119 43.2811 39.0671 43.0557C39.1161 42.8351 39.1491 42.6112 39.1657 42.3859C39.1953 42.1603 39.2118 41.9331 39.215 41.7055C39.215 41.4748 39.2314 41.2499 39.215 41.0245L39.1657 40.3441L39.0612 39.6743C38.9766 39.2292 38.8666 38.7894 38.7318 38.3569C38.6608 38.1426 38.5892 37.929 38.5011 37.72C38.4248 37.5227 38.3315 37.3196 38.2434 37.1441C37.3041 35.7768 36.3648 34.399 35.4496 33.0212C34.5274 31.6328 33.6051 30.2438 32.7046 28.8384C31.804 27.433 30.9041 26.0282 30.0311 24.6116C29.5867 23.9036 29.1587 23.1845 28.7302 22.4706C28.3075 21.7662 27.8848 21.0617 27.4792 20.3467L38.0403 35.9911C39.205 37.721 39.7324 39.8019 39.5321 41.8777C39.3319 43.9535 38.4164 45.8952 36.9425 47.3706Z" fill="white"/>
</g>
<g style="mix-blend-mode:screen" opacity="0.6">
<path d="M45.6211 34.8001C46.1759 33.845 46.7576 32.9115 47.3283 31.9728C47.8989 31.0341 48.4865 30.0848 49.0741 29.1514C50.2541 27.2799 51.4478 25.4172 52.6552 23.5633C53.8522 21.7023 55.0873 19.8689 56.3055 18.025C57.5383 16.2051 58.7647 14.3747 60.011 12.5654L60.2253 11.8956C60.2963 11.6485 60.3897 11.4071 60.4449 11.16L60.604 10.4079C60.6644 10.1611 60.7038 9.90954 60.7214 9.65599L60.7871 8.89276C60.7983 8.64033 60.7765 8.38795 60.7707 8.12965L60.7654 7.74513L60.7102 7.3717C60.682 7.11716 60.6403 6.86431 60.584 6.61446L60.3867 5.87301L60.1044 5.15735C60.011 4.91548 59.8795 4.69065 59.7698 4.45994C59.65 4.23185 59.5179 4.01022 59.3747 3.79597C59.2373 3.57113 59.067 3.3733 58.9191 3.1649C58.7541 2.96178 58.5838 2.76394 58.403 2.57197C58.0456 2.18939 57.6524 1.84184 57.2289 1.53406C59.2027 2.86663 60.5664 4.92848 61.0202 7.26627C61.474 9.60409 60.9808 12.0265 59.6494 14.0008L45.6211 34.8001Z" fill="white"/>
</g>
<g style="mix-blend-mode:screen" opacity="0.6">
<path d="M15.2107 27.7735C15.8529 26.5824 16.528 25.4077 17.1926 24.2277C17.5325 23.6407 17.8565 23.0419 18.2076 22.4601L19.2344 20.6989L21.2926 17.1807L23.3895 13.6783L25.5088 10.1983L27.6439 6.7288L29.8066 3.27047C30.4271 2.28774 31.0364 1.31088 31.6675 0.335199L26.6342 0.225414C24.7897 0.14851 22.9451 0.104485 21.0953 0.00585938H32.2822L23.45 14.374L15.2107 27.7735Z" fill="white"/>
</g>
<g style="mix-blend-mode:multiply" opacity="0.3">
<path d="M20.9032 42.6934C20.8973 42.6934 20.8973 42.6882 20.892 42.6823C20.8838 42.6719 20.8764 42.6609 20.8697 42.6494L13.9425 32.3789L13.1247 31.1661L1.53687 14.0011C0.527776 12.5073 -0.00776873 10.744 8.51622e-05 8.94131C0.00793909 7.13858 0.558816 5.38003 1.58089 3.89502C1.61905 3.84043 1.65194 3.7964 1.67953 3.76352C1.70712 3.73065 1.72885 3.70833 1.74528 3.69189C1.38271 4.21813 1.08413 4.78571 0.85589 5.38262C0.585602 6.07244 0.403168 6.79351 0.312871 7.52892C0.195437 8.4719 0.239909 9.4281 0.444371 10.3562C0.671919 11.453 1.07997 12.5044 1.65193 13.4675C1.71768 13.5849 1.80046 13.747 1.86034 13.8409L2.1298 14.2249C2.31062 14.4832 2.49202 14.7409 2.6787 15.0045C3.0462 15.5328 3.41956 16.0747 3.80408 16.6236C5.33042 18.8139 6.93247 21.1744 8.53571 23.535C9.33176 24.7202 10.1208 25.9061 10.9015 27.0696C11.6753 28.2437 12.4384 29.392 13.174 30.5115C13.2327 30.6048 13.295 30.6982 13.3554 30.7862C13.646 31.2306 13.9372 31.6668 14.2172 32.1035C15.2874 33.7391 16.2754 35.2736 17.1484 36.6485C18.3008 38.449 19.2289 39.9754 19.8929 41.0292C20.4582 41.9685 20.8151 42.5496 20.8973 42.6811C20.8973 42.6882 20.9032 42.6881 20.9032 42.6934Z" fill="black"/>
</g>
<g style="mix-blend-mode:multiply" opacity="0.3">
<path d="M30.634 24.985C30.6558 24.941 30.7327 24.7983 30.8536 24.5787L35.2671 18.0302L44.33 4.59778C44.2472 4.75159 43.5393 6.06892 42.4198 7.91873C41.8269 8.91261 41.1188 10.0545 40.3445 11.2726C39.9494 11.8767 39.5596 12.5054 39.1369 13.1394C38.7143 13.7734 38.2916 14.4074 37.8689 15.0497C37.0471 16.2625 36.2222 17.4649 35.4262 18.5903C35.388 18.649 35.344 18.7076 35.3052 18.7663C34.471 19.9463 33.6809 21.0336 32.9888 21.9611C31.7002 23.6953 30.7514 24.8477 30.634 24.985Z" fill="black"/>
</g>
</g>
<defs>
<linearGradient id="paint0_linear_1_304" x1="-468.613" y1="-134.427" x2="-425.945" y2="-112.538" gradientUnits="userSpaceOnUse">
<stop stop-color="#EB643F"/>
<stop offset="1" stop-color="#964C9A"/>
</linearGradient>
<linearGradient id="paint1_linear_1_304" x1="-429.184" y1="-114.771" x2="-451.352" y2="-97.9471" gradientUnits="userSpaceOnUse">
<stop stop-color="#FCC400"/>
<stop offset="0.162" stop-color="#FBC000"/>
<stop offset="0.307" stop-color="#FBB500"/>
<stop offset="0.446" stop-color="#FBA300"/>
<stop offset="0.581" stop-color="#FA8900"/>
<stop offset="0.712" stop-color="#FA6800"/>
<stop offset="0.842" stop-color="#F93F00"/>
<stop offset="0.967" stop-color="#F81000"/>
<stop offset="1" stop-color="#F80300"/>
</linearGradient>
<linearGradient id="paint2_linear_1_304" x1="-470.834" y1="-91.0134" x2="-439.65" y2="-91.0134" gradientUnits="userSpaceOnUse">
<stop stop-color="#FC7300"/>
<stop offset="1" stop-color="#F8007A"/>
</linearGradient>
</defs>
</svg>
